<svg width="35" height="28" viewBox="0 0 35 28" fill="none" xmlns="http://www.w3.org/2000/svg">
<path d="M2.5 12.5H17.5V15H2.5V12.5Z" fill="black"/>
<path d="M0 6.25H12.5V8.75H0V6.25Z" fill="black"/>
<path d="M34.8987 13.2575L31.1487 4.5075C31.0525 4.2826 30.8923 4.09092 30.6881 3.95625C30.4839 3.82158 30.2446 3.74987 30 3.75H26.25V1.25C26.25 0.918479 26.1183 0.600537 25.8839 0.366117C25.6495 0.131696 25.3315 0 25 0H4.99999V2.5H23.75V18.195C23.1804 18.5257 22.6819 18.966 22.2833 19.4903C21.8847 20.0146 21.5938 20.6127 21.4275 21.25H13.5725C13.2682 20.0717 12.5447 19.0448 11.5375 18.3617C10.5303 17.6787 9.30851 17.3865 8.10124 17.5399C6.89397 17.6932 5.78407 18.2816 4.97959 19.1947C4.1751 20.1078 3.73126 21.283 3.73126 22.5C3.73126 23.717 4.1751 24.8922 4.97959 25.8053C5.78407 26.7184 6.89397 27.3068 8.10124 27.4601C9.30851 27.6135 10.5303 27.3213 11.5375 26.6383C12.5447 25.9552 13.2682 24.9283 13.5725 23.75H21.4275C21.6994 24.8228 22.3213 25.7743 23.1947 26.454C24.0681 27.1336 25.1433 27.5027 26.25 27.5027C27.3567 27.5027 28.4318 27.1336 29.3053 26.454C30.1787 25.7743 30.8006 24.8228 31.0725 23.75H33.75C34.0815 23.75 34.3995 23.6183 34.6339 23.3839C34.8683 23.1495 35 22.8315 35 22.5V13.75C35.0001 13.5807 34.9656 13.4131 34.8987 13.2575V13.2575ZM8.74999 25C8.25554 25 7.77219 24.8534 7.36107 24.5787C6.94994 24.304 6.62951 23.9135 6.44029 23.4567C6.25107 22.9999 6.20156 22.4972 6.29803 22.0123C6.39449 21.5273 6.63259 21.0819 6.98222 20.7322C7.33186 20.3826 7.77731 20.1445 8.26227 20.048C8.74722 19.9516 9.24988 20.0011 9.7067 20.1903C10.1635 20.3795 10.554 20.7 10.8287 21.1111C11.1034 21.5222 11.25 22.0055 11.25 22.5C11.2493 23.1628 10.9857 23.7983 10.517 24.267C10.0483 24.7357 9.41283 24.9993 8.74999 25V25ZM26.25 6.25H29.175L31.855 12.5H26.25V6.25ZM26.25 25C25.7555 25 25.2722 24.8534 24.8611 24.5787C24.4499 24.304 24.1295 23.9135 23.9403 23.4567C23.7511 22.9999 23.7016 22.4972 23.798 22.0123C23.8945 21.5273 24.1326 21.0819 24.4822 20.7322C24.8319 20.3826 25.2773 20.1445 25.7623 20.048C26.2472 19.9516 26.7499 20.0011 27.2067 20.1903C27.6635 20.3795 28.054 20.7 28.3287 21.1111C28.6034 21.5222 28.75 22.0055 28.75 22.5C28.7493 23.1628 28.4857 23.7983 28.017 24.267C27.5483 24.7357 26.9128 24.9993 26.25 25ZM32.5 21.25H31.0725C30.7971 20.1793 30.1743 19.2302 29.3015 18.5516C28.4288 17.8729 27.3555 17.5031 26.25 17.5V15H32.5V21.25Z" fill="black"/>
</svg>
