<svg width="29" height="29" viewBox="0 0 29 29" fill="none" xmlns="http://www.w3.org/2000/svg">
<path d="M8.21094 15.5938H13.4062V20.7891C13.4062 20.9395 13.5293 21.0625 13.6797 21.0625H15.3203C15.4707 21.0625 15.5938 20.9395 15.5938 20.7891V15.5938H20.7891C20.9395 15.5938 21.0625 15.4707 21.0625 15.3203V13.6797C21.0625 13.5293 20.9395 13.4062 20.7891 13.4062H15.5938V8.21094C15.5938 8.06055 15.4707 7.9375 15.3203 7.9375H13.6797C13.5293 7.9375 13.4062 8.06055 13.4062 8.21094V13.4062H8.21094C8.06055 13.4062 7.9375 13.5293 7.9375 13.6797V15.3203C7.9375 15.4707 8.06055 15.5938 8.21094 15.5938Z" fill="white"/>
<path d="M27.0781 0.828125H1.92188C1.31689 0.828125 0.828125 1.31689 0.828125 1.92188V27.0781C0.828125 27.6831 1.31689 28.1719 1.92188 28.1719H27.0781C27.6831 28.1719 28.1719 27.6831 28.1719 27.0781V1.92188C28.1719 1.31689 27.6831 0.828125 27.0781 0.828125ZM25.7109 25.7109H3.28906V3.28906H25.7109V25.7109Z" fill="white"/>
</svg>
